<svg xmlns="http://www.w3.org/2000/svg" xmlns:xlink="http://www.w3.org/1999/xlink" width="435" zoomAndPan="magnify" viewBox="0 0 326.25 86.249997" height="115" preserveAspectRatio="xMidYMid meet" version="1.0"><defs><g/><clipPath id="03fcec0a36"><path d="M 138.929688 56 L 143 56 L 143 61 L 138.929688 61 Z M 138.929688 56 " clip-rule="nonzero"/></clipPath><clipPath id="837481a7ae"><path d="M 196 74 L 200.386719 74 L 200.386719 79 L 196 79 Z M 196 74 " clip-rule="nonzero"/></clipPath><clipPath id="dc163b6793"><path d="M 138.929688 5 L 200.386719 5 L 200.386719 84.414062 L 138.929688 84.414062 Z M 138.929688 5 " clip-rule="nonzero"/></clipPath><clipPath id="e7783b9952"><path d="M 138.929688 1.082031 L 200.386719 1.082031 L 200.386719 81 L 138.929688 81 Z M 138.929688 1.082031 " clip-rule="nonzero"/></clipPath><clipPath id="5cfbf17763"><path d="M 158.230469 18.816406 L 167.5625 18.816406 L 167.5625 27.132812 L 158.230469 27.132812 Z M 158.230469 18.816406 " clip-rule="nonzero"/></clipPath><clipPath id="aff144933f"><path d="M 150 48 L 170 48 L 170 68 L 150 68 Z M 150 48 " clip-rule="nonzero"/></clipPath><clipPath id="b73964fdd9"><path d="M 159.503906 48.441406 L 169.167969 60.753906 L 160.554688 67.511719 L 150.894531 55.199219 Z M 159.503906 48.441406 " clip-rule="nonzero"/></clipPath><clipPath id="ffdc4e4696"><path d="M 159.503906 48.441406 L 169.144531 60.722656 L 160.53125 67.480469 L 150.894531 55.199219 Z M 159.503906 48.441406 " clip-rule="nonzero"/></clipPath><clipPath id="4b0101ffe7"><path d="M 155 49 L 174 49 L 174 69 L 155 69 Z M 155 49 " clip-rule="nonzero"/></clipPath><clipPath id="27ec2cd586"><path d="M 163.789062 49.46875 L 173.453125 61.785156 L 164.84375 68.542969 L 155.179688 56.230469 Z M 163.789062 49.46875 " clip-rule="nonzero"/></clipPath><clipPath id="0cfbd3fdbb"><path d="M 163.789062 49.46875 L 173.429688 61.753906 L 164.816406 68.511719 L 155.179688 56.230469 Z M 163.789062 49.46875 " clip-rule="nonzero"/></clipPath><clipPath id="8fee1246c7"><path d="M 159 44 L 177 44 L 177 62 L 159 62 Z M 159 44 " clip-rule="nonzero"/></clipPath><clipPath id="85e8967bb8"><path d="M 168.148438 43.785156 L 177.722656 53.359375 L 169.253906 61.828125 L 159.679688 52.253906 Z M 168.148438 43.785156 " clip-rule="nonzero"/></clipPath><clipPath id="2ad1af283c"><path d="M 168.136719 43.773438 L 178.078125 53.714844 L 169.609375 62.183594 L 159.667969 52.242188 Z M 168.136719 43.773438 " clip-rule="nonzero"/></clipPath><clipPath id="77f7adc858"><path d="M 161.828125 37.464844 L 183.925781 59.558594 L 158.515625 84.972656 L 136.417969 62.875 Z M 161.828125 37.464844 " clip-rule="nonzero"/></clipPath><clipPath id="d8ac815fd0"><path d="M 153.421875 12.019531 L 171.648438 12.019531 L 171.648438 37 L 153.421875 37 Z M 153.421875 12.019531 " clip-rule="nonzero"/></clipPath><clipPath id="2504bbf8fc"><path d="M 166 56 L 170 56 L 170 61 L 166 61 Z M 166 56 " clip-rule="nonzero"/></clipPath><clipPath id="5f9a5d2e7d"><path d="M 161.832031 47.582031 L 172.730469 61.539062 L 163.289062 68.910156 L 152.390625 54.957031 Z M 161.832031 47.582031 " clip-rule="nonzero"/></clipPath><clipPath id="869585ce8a"><path d="M 161.832031 47.582031 L 172.730469 61.539062 L 163.289062 68.910156 L 152.390625 54.957031 Z M 161.832031 47.582031 " clip-rule="nonzero"/></clipPath><clipPath id="29af5b1fcb"><path d="M 155 51 L 169 51 L 169 66 L 155 66 Z M 155 51 " clip-rule="nonzero"/></clipPath><clipPath id="f1f42af57d"><path d="M 161.832031 47.582031 L 172.730469 61.539062 L 163.289062 68.910156 L 152.390625 54.957031 Z M 161.832031 47.582031 " clip-rule="nonzero"/></clipPath><clipPath id="246ae8c79f"><path d="M 161.832031 47.582031 L 172.730469 61.539062 L 163.289062 68.910156 L 152.390625 54.957031 Z M 161.832031 47.582031 " clip-rule="nonzero"/></clipPath><clipPath id="312cac620d"><path d="M 161 51 L 165 51 L 165 54 L 161 54 Z M 161 51 " clip-rule="nonzero"/></clipPath><clipPath id="56968a5f9b"><path d="M 161.832031 47.582031 L 172.730469 61.539062 L 163.289062 68.910156 L 152.390625 54.957031 Z M 161.832031 47.582031 " clip-rule="nonzero"/></clipPath><clipPath id="702855bddc"><path d="M 161.832031 47.582031 L 172.730469 61.539062 L 163.289062 68.910156 L 152.390625 54.957031 Z M 161.832031 47.582031 " clip-rule="nonzero"/></clipPath></defs><g fill="#000000" fill-opacity="1"><g transform="translate(42.501294, 57.645951)"><g><path d="M 17.671875 0.515625 C 15.472656 0.515625 13.425781 0.113281 11.53125 -0.6875 C 9.644531 -1.488281 8.015625 -2.582031 6.640625 -3.96875 C 5.273438 -5.351562 4.203125 -6.988281 3.421875 -8.875 C 2.648438 -10.757812 2.265625 -12.773438 2.265625 -14.921875 L 2.265625 -15.015625 C 2.265625 -17.160156 2.648438 -19.164062 3.421875 -21.03125 C 4.203125 -22.90625 5.273438 -24.550781 6.640625 -25.96875 C 8.015625 -27.382812 9.660156 -28.5 11.578125 -29.3125 C 13.492188 -30.125 15.609375 -30.53125 17.921875 -30.53125 C 19.328125 -30.53125 20.609375 -30.414062 21.765625 -30.1875 C 22.921875 -29.96875 23.96875 -29.65625 24.90625 -29.25 C 25.851562 -28.851562 26.726562 -28.367188 27.53125 -27.796875 C 28.332031 -27.222656 29.078125 -26.59375 29.765625 -25.90625 L 25.5625 -21.0625 C 24.382812 -22.113281 23.1875 -22.941406 21.96875 -23.546875 C 20.757812 -24.148438 19.398438 -24.453125 17.890625 -24.453125 C 16.628906 -24.453125 15.460938 -24.207031 14.390625 -23.71875 C 13.316406 -23.226562 12.394531 -22.554688 11.625 -21.703125 C 10.851562 -20.847656 10.25 -19.851562 9.8125 -18.71875 C 9.382812 -17.59375 9.171875 -16.382812 9.171875 -15.09375 L 9.171875 -15.015625 C 9.171875 -13.722656 9.382812 -12.503906 9.8125 -11.359375 C 10.25 -10.222656 10.84375 -9.222656 11.59375 -8.359375 C 12.351562 -7.503906 13.269531 -6.828125 14.34375 -6.328125 C 15.414062 -5.828125 16.597656 -5.578125 17.890625 -5.578125 C 19.597656 -5.578125 21.046875 -5.890625 22.234375 -6.515625 C 23.421875 -7.148438 24.601562 -8.007812 25.78125 -9.09375 L 29.984375 -4.84375 C 29.210938 -4.019531 28.410156 -3.273438 27.578125 -2.609375 C 26.742188 -1.953125 25.832031 -1.390625 24.84375 -0.921875 C 23.863281 -0.453125 22.785156 -0.0976562 21.609375 0.140625 C 20.441406 0.390625 19.128906 0.515625 17.671875 0.515625 Z M 17.671875 0.515625 "/></g></g></g><g fill="#000000" fill-opacity="1"><g transform="translate(74.150042, 57.645951)"><g><path d="M 9.4375 0.421875 C 8.351562 0.421875 7.332031 0.273438 6.375 -0.015625 C 5.414062 -0.316406 4.578125 -0.765625 3.859375 -1.359375 C 3.140625 -1.960938 2.570312 -2.703125 2.15625 -3.578125 C 1.75 -4.453125 1.546875 -5.460938 1.546875 -6.609375 L 1.546875 -6.6875 C 1.546875 -7.945312 1.773438 -9.035156 2.234375 -9.953125 C 2.691406 -10.867188 3.328125 -11.625 4.140625 -12.21875 C 4.953125 -12.820312 5.921875 -13.273438 7.046875 -13.578125 C 8.179688 -13.878906 9.4375 -14.03125 10.8125 -14.03125 C 11.976562 -14.03125 13 -13.941406 13.875 -13.765625 C 14.75 -13.597656 15.597656 -13.367188 16.421875 -13.078125 L 16.421875 -13.46875 C 16.421875 -14.84375 16.003906 -15.882812 15.171875 -16.59375 C 14.347656 -17.3125 13.125 -17.671875 11.5 -17.671875 C 10.238281 -17.671875 9.128906 -17.5625 8.171875 -17.34375 C 7.210938 -17.132812 6.203125 -16.828125 5.140625 -16.421875 L 3.515625 -21.40625 C 4.773438 -21.945312 6.085938 -22.390625 7.453125 -22.734375 C 8.828125 -23.078125 10.488281 -23.25 12.4375 -23.25 C 14.238281 -23.25 15.773438 -23.023438 17.046875 -22.578125 C 18.316406 -22.140625 19.367188 -21.503906 20.203125 -20.671875 C 21.054688 -19.816406 21.679688 -18.765625 22.078125 -17.515625 C 22.484375 -16.273438 22.6875 -14.882812 22.6875 -13.34375 L 22.6875 0 L 16.390625 0 L 16.390625 -2.484375 C 15.585938 -1.597656 14.628906 -0.890625 13.515625 -0.359375 C 12.398438 0.160156 11.039062 0.421875 9.4375 0.421875 Z M 11.40625 -4.078125 C 12.945312 -4.078125 14.179688 -4.445312 15.109375 -5.1875 C 16.046875 -5.9375 16.515625 -6.910156 16.515625 -8.109375 L 16.515625 -9.265625 C 15.941406 -9.523438 15.300781 -9.734375 14.59375 -9.890625 C 13.894531 -10.046875 13.148438 -10.125 12.359375 -10.125 C 10.953125 -10.125 9.847656 -9.851562 9.046875 -9.3125 C 8.242188 -8.769531 7.84375 -7.984375 7.84375 -6.953125 L 7.84375 -6.859375 C 7.84375 -5.972656 8.171875 -5.285156 8.828125 -4.796875 C 9.492188 -4.316406 10.351562 -4.078125 11.40625 -4.078125 Z M 11.40625 -4.078125 "/></g></g></g><g fill="#000000" fill-opacity="1"><g transform="translate(99.537662, 57.645951)"><g><path d="M 2.921875 -22.984375 L 9.4375 -22.984375 L 9.4375 -18.359375 C 10.09375 -19.929688 10.992188 -21.1875 12.140625 -22.125 C 13.285156 -23.070312 14.828125 -23.503906 16.765625 -23.421875 L 16.765625 -16.59375 L 16.421875 -16.59375 C 14.253906 -16.59375 12.546875 -15.9375 11.296875 -14.625 C 10.054688 -13.3125 9.4375 -11.269531 9.4375 -8.5 L 9.4375 0 L 2.921875 0 Z M 2.921875 -22.984375 "/></g></g></g><g fill="#000000" fill-opacity="1"><g transform="translate(117.463373, 57.645951)"><g><path d="M 10.6875 0.390625 C 9.675781 0.390625 8.765625 0.28125 7.953125 0.0625 C 7.140625 -0.144531 6.4375 -0.519531 5.84375 -1.0625 C 5.257812 -1.613281 4.800781 -2.320312 4.46875 -3.1875 C 4.144531 -4.0625 3.984375 -5.171875 3.984375 -6.515625 L 3.984375 -17.40625 L 1.25 -17.40625 L 1.25 -22.984375 L 3.984375 -22.984375 L 3.984375 -28.859375 L 10.515625 -28.859375 L 10.515625 -22.984375 L 15.90625 -22.984375 L 15.90625 -17.40625 L 10.515625 -17.40625 L 10.515625 -7.59375 C 10.515625 -6.101562 11.210938 -5.359375 12.609375 -5.359375 C 13.753906 -5.359375 14.828125 -5.628906 15.828125 -6.171875 L 15.828125 -0.9375 C 15.140625 -0.539062 14.378906 -0.222656 13.546875 0.015625 C 12.722656 0.265625 11.769531 0.390625 10.6875 0.390625 Z M 10.6875 0.390625 "/></g></g></g><g fill="#000000" fill-opacity="1"><g transform="translate(135.260843, 57.645951)"><g/></g></g><g fill="#000000" fill-opacity="1"><g transform="translate(148.12619, 57.645951)"><g/></g></g><g fill="#000000" fill-opacity="1"><g transform="translate(160.991537, 57.645951)"><g/></g></g><g fill="#000000" fill-opacity="1"><g transform="translate(173.856884, 57.645951)"><g/></g></g><g fill="#000000" fill-opacity="1"><g transform="translate(186.722231, 57.645951)"><g/></g></g><g fill="#000000" fill-opacity="1"><g transform="translate(199.592359, 57.645951)"><g><path d="M 3.609375 -30.015625 L 17.546875 -30.015625 C 21.003906 -30.015625 23.617188 -29.128906 25.390625 -27.359375 C 26.765625 -25.992188 27.453125 -24.296875 27.453125 -22.265625 L 27.453125 -22.171875 C 27.453125 -21.316406 27.34375 -20.5625 27.125 -19.90625 C 26.914062 -19.25 26.628906 -18.65625 26.265625 -18.125 C 25.910156 -17.59375 25.492188 -17.125 25.015625 -16.71875 C 24.546875 -16.320312 24.039062 -15.984375 23.5 -15.703125 C 25.25 -15.046875 26.625 -14.148438 27.625 -13.015625 C 28.625 -11.890625 29.125 -10.328125 29.125 -8.328125 L 29.125 -8.234375 C 29.125 -6.859375 28.859375 -5.65625 28.328125 -4.625 C 27.796875 -3.601562 27.035156 -2.75 26.046875 -2.0625 C 25.066406 -1.375 23.882812 -0.859375 22.5 -0.515625 C 21.113281 -0.171875 19.578125 0 17.890625 0 L 3.609375 0 Z M 20.890625 -21.140625 C 20.890625 -22.140625 20.515625 -22.90625 19.765625 -23.4375 C 19.023438 -23.96875 17.957031 -24.234375 16.5625 -24.234375 L 10.03125 -24.234375 L 10.03125 -17.890625 L 16.125 -17.890625 C 17.582031 -17.890625 18.738281 -18.140625 19.59375 -18.640625 C 20.457031 -19.140625 20.890625 -19.945312 20.890625 -21.0625 Z M 22.5625 -9.140625 C 22.5625 -10.140625 22.175781 -10.929688 21.40625 -11.515625 C 20.632812 -12.097656 19.390625 -12.390625 17.671875 -12.390625 L 10.03125 -12.390625 L 10.03125 -5.796875 L 17.890625 -5.796875 C 19.347656 -5.796875 20.488281 -6.054688 21.3125 -6.578125 C 22.144531 -7.109375 22.5625 -7.929688 22.5625 -9.046875 Z M 22.5625 -9.140625 "/></g></g></g><g fill="#000000" fill-opacity="1"><g transform="translate(230.554959, 57.645951)"><g><path d="M 10.546875 0.421875 C 8.054688 0.421875 6.132812 -0.332031 4.78125 -1.84375 C 3.425781 -3.363281 2.75 -5.453125 2.75 -8.109375 L 2.75 -22.984375 L 9.265625 -22.984375 L 9.265625 -10.171875 C 9.265625 -8.617188 9.609375 -7.445312 10.296875 -6.65625 C 10.984375 -5.875 11.953125 -5.484375 13.203125 -5.484375 C 14.460938 -5.484375 15.457031 -5.875 16.1875 -6.65625 C 16.914062 -7.445312 17.28125 -8.617188 17.28125 -10.171875 L 17.28125 -22.984375 L 23.796875 -22.984375 L 23.796875 0 L 17.28125 0 L 17.28125 -3.265625 C 16.914062 -2.773438 16.507812 -2.304688 16.0625 -1.859375 C 15.613281 -1.421875 15.117188 -1.03125 14.578125 -0.6875 C 14.035156 -0.34375 13.4375 -0.0703125 12.78125 0.125 C 12.125 0.320312 11.378906 0.421875 10.546875 0.421875 Z M 10.546875 0.421875 "/></g></g></g><g fill="#000000" fill-opacity="1"><g transform="translate(257.27199, 57.645951)"><g><path d="M 18.015625 -22.984375 L 24.796875 -22.984375 L 15.953125 0.5625 C 15.523438 1.726562 15.066406 2.71875 14.578125 3.53125 C 14.097656 4.351562 13.5625 5.019531 12.96875 5.53125 C 12.382812 6.050781 11.71875 6.421875 10.96875 6.640625 C 10.226562 6.867188 9.375 6.984375 8.40625 6.984375 C 7.207031 6.984375 6.148438 6.84375 5.234375 6.5625 C 4.316406 6.28125 3.441406 5.894531 2.609375 5.40625 L 4.796875 0.6875 C 5.234375 0.945312 5.703125 1.160156 6.203125 1.328125 C 6.703125 1.503906 7.164062 1.59375 7.59375 1.59375 C 8.164062 1.59375 8.613281 1.484375 8.9375 1.265625 C 9.269531 1.046875 9.578125 0.648438 9.859375 0.078125 L 0.859375 -22.984375 L 7.765625 -22.984375 L 13 -7.328125 Z M 18.015625 -22.984375 "/></g></g></g><g clip-path="url(#03fcec0a36)"><path fill="#000000" d="M 138.925781 56.632812 L 142.890625 56.632812 L 142.890625 60.597656 L 138.925781 60.597656 Z M 138.925781 56.632812 " fill-opacity="1" fill-rule="evenodd"/></g><g clip-path="url(#837481a7ae)"><path fill="#000000" d="M 196.425781 74.476562 L 200.390625 74.476562 L 200.390625 78.441406 L 196.425781 78.441406 Z M 196.425781 74.476562 " fill-opacity="1" fill-rule="evenodd"/></g><path fill="#000000" d="M 194.441406 38.785156 L 198.410156 38.785156 L 198.410156 42.75 L 194.441406 42.75 Z M 194.441406 38.785156 " fill-opacity="1" fill-rule="evenodd"/><path fill="#000000" d="M 142.890625 20.941406 L 146.859375 20.941406 L 146.859375 24.90625 L 142.890625 24.90625 Z M 142.890625 20.941406 " fill-opacity="1" fill-rule="evenodd"/><path fill="#000000" d="M 178.578125 20.941406 L 182.546875 20.941406 L 182.546875 24.90625 L 178.578125 24.90625 Z M 178.578125 20.941406 " fill-opacity="1" fill-rule="evenodd"/><g clip-path="url(#dc163b6793)"><path fill="#000000" d="M 138.925781 60.597656 C 138.925781 53.035156 142.472656 46.265625 147.929688 41.957031 L 150.199219 40.132812 L 146.707031 35.929688 C 143.945312 32.625 142.894531 28.554688 142.894531 24.90625 C 142.894531 13.960938 151.769531 5.078125 162.71875 5.078125 C 173.664062 5.078125 182.546875 13.960938 182.546875 24.90625 C 182.546875 31.199219 179.609375 36.804688 175.089844 40.398438 L 172.695312 42.328125 L 181.070312 52.398438 L 181.554688 50.8125 C 182.1875 48.328125 182.546875 45.605469 182.546875 42.75 C 182.546875 41.664062 183.433594 40.765625 184.527344 40.765625 L 196.425781 40.765625 C 197.515625 40.765625 198.40625 41.664062 198.40625 42.75 C 198.40625 51.023438 196.304688 58.929688 192.5625 65.644531 L 192.367188 65.960938 L 198.902344 73.789062 C 199.828125 74.921875 200.386719 76.351562 200.386719 77.910156 C 200.386719 81.480469 197.488281 84.390625 193.917969 84.390625 L 190.011719 84.390625 C 187.824219 84.390625 185.941406 83.015625 184.851562 81.71875 L 181.773438 78.015625 L 180.953125 78.625 C 175.710938 82.273438 169.507812 84.390625 162.71875 84.390625 C 149.585938 84.390625 138.925781 73.734375 138.925781 60.597656 Z M 169.476562 66.914062 L 171.53125 65.726562 L 160.355469 52.324219 L 157.839844 54.355469 C 155.953125 55.835938 154.789062 58.085938 154.789062 60.597656 C 154.789062 64.984375 158.335938 68.527344 162.71875 68.527344 C 165.003906 68.527344 167.296875 67.972656 169.476562 66.914062 Z M 162.542969 30.167969 L 165.160156 28.027344 C 166.113281 27.285156 166.683594 26.175781 166.683594 24.90625 C 166.683594 22.710938 164.902344 20.941406 162.71875 20.941406 C 160.535156 20.941406 158.761719 22.710938 158.761719 24.90625 C 158.761719 25.222656 158.796875 25.4375 158.839844 25.59375 L 158.933594 25.832031 Z M 162.542969 30.167969 " fill-opacity="1" fill-rule="evenodd"/></g><path fill="#ffed04" d="M 140.910156 56.632812 C 140.910156 49.707031 144.160156 43.519531 149.171875 39.554688 L 153.015625 36.433594 L 148.234375 30.695312 C 145.832031 27.816406 144.882812 24.21875 144.882812 20.941406 C 144.882812 11.105469 152.867188 3.097656 162.71875 3.097656 C 172.570312 3.097656 180.5625 11.105469 180.5625 20.941406 C 180.5625 26.597656 177.921875 31.648438 173.847656 34.898438 L 169.886719 38.097656 L 181.738281 52.324219 L 182.691406 49.941406 C 183.863281 46.585938 184.53125 42.832031 184.53125 38.785156 L 196.425781 38.785156 C 196.425781 46.742188 194.410156 54.304688 190.867188 60.648438 L 189.933594 62.15625 L 197.378906 71.09375 C 198.023438 71.859375 198.410156 72.863281 198.410156 73.949219 C 198.410156 76.433594 196.398438 78.441406 193.921875 78.441406 L 190.015625 78.441406 C 188.636719 78.441406 187.261719 77.542969 186.382812 76.484375 L 182.082031 71.332031 L 181.902344 71.488281 C 176.542969 75.851562 169.988281 78.441406 162.71875 78.441406 C 150.679688 78.441406 140.910156 68.6875 140.910156 56.632812 Z M 172.71875 63.371094 L 174.40625 62.101562 L 160.632812 45.582031 L 156.601562 48.832031 C 154.269531 50.683594 152.804688 53.484375 152.804688 56.632812 C 152.804688 62.101562 157.246094 66.542969 162.71875 66.542969 C 166.207031 66.542969 169.640625 65.410156 172.71875 63.371094 Z M 162.273438 28.953125 L 166.402344 25.621094 C 167.800781 24.511719 168.671875 22.84375 168.671875 20.941406 C 168.671875 17.664062 166 14.992188 162.722656 14.992188 C 159.445312 14.992188 156.78125 17.664062 156.78125 20.941406 C 156.78125 22.050781 157.109375 22.765625 157.378906 23.082031 Z M 162.273438 28.953125 " fill-opacity="1" fill-rule="evenodd"/><g clip-path="url(#e7783b9952)"><path fill="#000000" d="M 138.925781 56.632812 C 138.925781 49.070312 142.472656 42.300781 147.929688 37.992188 L 150.199219 36.167969 L 146.707031 31.964844 C 143.945312 28.660156 142.894531 24.589844 142.894531 20.941406 C 142.894531 9.996094 151.769531 1.113281 162.71875 1.113281 C 173.664062 1.113281 182.546875 9.996094 182.546875 20.941406 C 182.546875 27.234375 179.609375 32.839844 175.089844 36.433594 L 172.695312 38.363281 L 181.070312 48.433594 L 181.554688 46.847656 C 182.1875 44.363281 182.546875 41.640625 182.546875 38.785156 C 182.546875 37.699219 183.433594 36.800781 184.527344 36.800781 L 196.425781 36.800781 C 197.515625 36.800781 198.40625 37.699219 198.40625 38.785156 C 198.40625 47.058594 196.304688 54.964844 192.5625 61.679688 L 192.367188 61.996094 L 198.902344 69.820312 C 199.828125 70.957031 200.386719 72.386719 200.386719 73.945312 C 200.386719 77.515625 197.488281 80.425781 193.917969 80.425781 L 190.011719 80.425781 C 187.824219 80.425781 185.941406 79.050781 184.851562 77.753906 L 181.773438 74.050781 L 180.953125 74.660156 C 175.710938 78.308594 169.507812 80.425781 162.71875 80.425781 C 149.585938 80.425781 138.925781 69.769531 138.925781 56.632812 Z M 180.625 69.953125 L 180.753906 69.851562 C 181.589844 69.109375 182.882812 69.191406 183.605469 70.0625 L 187.902344 75.21875 C 188.574219 76.011719 189.441406 76.460938 190.015625 76.460938 L 193.917969 76.460938 C 195.296875 76.460938 196.425781 75.324219 196.425781 73.949219 C 196.425781 73.339844 196.210938 72.785156 195.851562 72.363281 L 188.410156 63.425781 C 187.863281 62.765625 187.800781 61.839844 188.246094 61.125 L 189.136719 59.671875 L 190.328125 57.371094 C 192.582031 52.613281 193.992188 47.246094 194.351562 41.617188 L 194.378906 40.769531 L 186.429688 40.769531 L 186.382812 41.933594 C 186.125 45 185.492188 47.933594 184.546875 50.632812 L 183.582031 53.0625 C 183.027344 54.464844 181.179688 54.753906 180.21875 53.589844 L 168.363281 39.367188 C 167.65625 38.519531 167.78125 37.25 168.640625 36.566406 L 172.609375 33.339844 C 176.234375 30.457031 178.582031 25.964844 178.582031 20.941406 C 178.582031 12.191406 171.476562 5.078125 162.71875 5.078125 C 153.960938 5.078125 146.863281 12.191406 146.863281 20.941406 C 146.863281 23.875 147.710938 26.96875 149.757812 29.429688 L 154.539062 35.164062 C 155.246094 36.011719 155.121094 37.28125 154.261719 37.992188 L 150.410156 41.085938 C 145.84375 44.707031 142.890625 50.339844 142.890625 56.632812 C 142.890625 67.574219 151.773438 76.457031 162.71875 76.457031 C 168.644531 76.457031 174.070312 74.609375 178.707031 71.410156 Z M 150.824219 56.632812 C 150.824219 52.851562 152.585938 49.492188 155.363281 47.296875 L 159.382812 44.046875 C 160.226562 43.359375 161.457031 43.492188 162.152344 44.308594 L 175.925781 60.832031 C 176.65625 61.703125 176.496094 63.023438 175.585938 63.6875 L 173.898438 64.957031 L 173.816406 65.011719 C 170.453125 67.257812 166.640625 68.527344 162.71875 68.527344 C 156.152344 68.527344 150.824219 63.214844 150.824219 56.632812 Z M 171.53125 61.761719 L 160.355469 48.355469 L 157.839844 50.390625 C 155.953125 51.871094 154.789062 54.117188 154.789062 56.632812 C 154.789062 61.019531 158.335938 64.5625 162.71875 64.5625 C 165.003906 64.5625 167.296875 64.007812 169.476562 62.949219 Z M 160.746094 30.222656 L 155.851562 24.351562 L 155.765625 24.246094 L 155.644531 24.089844 L 155.578125 23.984375 C 155.117188 23.242188 154.792969 22.210938 154.792969 20.941406 C 154.792969 16.578125 158.347656 13.011719 162.71875 13.011719 C 167.089844 13.011719 170.652344 16.578125 170.652344 20.941406 C 170.652344 23.453125 169.484375 25.699219 167.644531 27.179688 L 163.515625 30.511719 C 162.671875 31.171875 161.4375 31.066406 160.746094 30.222656 Z M 162.542969 26.203125 L 165.160156 24.058594 C 166.113281 23.320312 166.683594 22.210938 166.683594 20.941406 C 166.683594 18.746094 164.902344 16.976562 162.71875 16.976562 C 160.535156 16.976562 158.761719 18.746094 158.761719 20.941406 C 158.761719 21.257812 158.796875 21.472656 158.839844 21.628906 L 158.933594 21.867188 Z M 162.542969 26.203125 " fill-opacity="1" fill-rule="evenodd"/></g><g clip-path="url(#5cfbf17763)"><path fill="#000000" d="M 158.230469 18.816406 L 167.550781 18.816406 L 167.550781 27.132812 L 158.230469 27.132812 Z M 158.230469 18.816406 " fill-opacity="1" fill-rule="nonzero"/></g><g clip-path="url(#aff144933f)"><g clip-path="url(#b73964fdd9)"><g clip-path="url(#ffdc4e4696)"><path fill="#000000" d="M 159.503906 48.441406 L 169.140625 60.71875 L 160.53125 67.480469 L 150.894531 55.199219 Z M 159.503906 48.441406 " fill-opacity="1" fill-rule="nonzero"/></g></g></g><g clip-path="url(#4b0101ffe7)"><g clip-path="url(#27ec2cd586)"><g clip-path="url(#0cfbd3fdbb)"><path fill="#000000" d="M 163.789062 49.46875 L 173.429688 61.75 L 164.816406 68.507812 L 155.179688 56.230469 Z M 163.789062 49.46875 " fill-opacity="1" fill-rule="nonzero"/></g></g></g><g clip-path="url(#8fee1246c7)"><g clip-path="url(#85e8967bb8)"><g clip-path="url(#2ad1af283c)"><g clip-path="url(#77f7adc858)"><path fill="#000000" d="M 168.265625 48.835938 C 167.089844 48.863281 165.675781 49.402344 164.226562 50.847656 L 162.570312 52.503906 L 168.882812 58.816406 L 170.539062 57.164062 C 173.160156 54.542969 172.746094 51.648438 171.261719 50.085938 C 170.503906 49.289062 169.449219 48.808594 168.265625 48.835938 Z M 170.460938 60.398438 L 172.117188 58.742188 C 175.550781 55.308594 175.25 51.027344 172.890625 48.539062 C 171.722656 47.3125 170.074219 46.554688 168.226562 46.597656 C 166.371094 46.640625 164.429688 47.492188 162.648438 49.269531 L 160.992188 50.925781 L 154.679688 44.613281 L 140.390625 58.898438 C 138.199219 61.089844 138.191406 64.632812 140.371094 66.8125 L 154.574219 81.019531 C 156.753906 83.199219 160.296875 83.1875 162.488281 80.996094 L 176.773438 66.710938 Z M 167.296875 60.40625 L 166.503906 61.199219 L 168.082031 62.777344 L 168.875 61.984375 L 173.609375 66.71875 L 160.910156 79.417969 C 159.59375 80.734375 157.46875 80.738281 156.164062 79.429688 L 141.957031 65.226562 C 140.648438 63.917969 140.65625 61.792969 141.972656 60.476562 L 154.667969 47.777344 L 159.40625 52.515625 L 158.609375 53.308594 L 160.1875 54.886719 L 160.984375 54.09375 Z M 167.296875 60.40625 " fill-opacity="1" fill-rule="evenodd"/></g></g></g></g><g clip-path="url(#d8ac815fd0)"><path fill="#ffffff" d="M 161.4375 18.308594 L 163.394531 18.308594 L 163.394531 17.46875 C 163.394531 16.929688 162.957031 16.492188 162.417969 16.492188 C 161.878906 16.492188 161.4375 16.929688 161.4375 17.46875 Z M 160.742188 18.308594 L 160.742188 17.46875 C 160.742188 16.546875 161.492188 15.792969 162.417969 15.792969 C 163.339844 15.792969 164.09375 16.546875 164.09375 17.46875 L 164.09375 18.308594 L 165.558594 18.308594 C 165.742188 18.308594 165.898438 18.453125 165.90625 18.640625 L 166.371094 24.195312 C 166.371094 24.207031 166.375 24.21875 166.375 24.234375 C 166.375 24.425781 166.21875 24.582031 166.023438 24.582031 L 158.808594 24.582031 C 158.714844 24.582031 158.621094 24.542969 158.554688 24.472656 C 158.488281 24.402344 158.453125 24.308594 158.460938 24.214844 L 158.925781 18.640625 C 158.9375 18.453125 159.089844 18.308594 159.273438 18.308594 Z M 161.070312 19.941406 C 161.347656 19.941406 161.570312 19.71875 161.570312 19.441406 C 161.570312 19.167969 161.347656 18.945312 161.070312 18.945312 C 160.796875 18.945312 160.574219 19.167969 160.574219 19.441406 C 160.574219 19.71875 160.796875 19.941406 161.070312 19.941406 Z M 163.722656 19.941406 C 164 19.941406 164.222656 19.71875 164.222656 19.441406 C 164.222656 19.167969 164 18.945312 163.722656 18.945312 C 163.449219 18.945312 163.226562 19.167969 163.226562 19.441406 C 163.226562 19.71875 163.449219 19.941406 163.722656 19.941406 Z M 160.976562 32.207031 C 160.625 31.179688 159.980469 30.277344 159.125 29.613281 L 157.015625 27.976562 C 154.851562 26.296875 153.539062 23.746094 153.425781 21.011719 C 153.425781 16.042969 157.449219 12.019531 162.417969 12.019531 C 167.382812 12.019531 171.410156 16.042969 171.410156 21.011719 C 171.296875 23.746094 169.980469 26.296875 167.816406 27.976562 L 165.710938 29.613281 C 164.851562 30.277344 164.207031 31.179688 163.855469 32.207031 L 163.609375 32.929688 C 163.433594 33.4375 162.953125 33.78125 162.417969 33.78125 C 161.878906 33.78125 161.398438 33.4375 161.226562 32.929688 Z M 162.417969 36.839844 C 160.429688 36.839844 158.820312 36.597656 158.820312 36.296875 C 158.820312 36 160.429688 35.757812 162.417969 35.757812 C 164.402344 35.757812 166.015625 36 166.015625 36.296875 C 166.015625 36.597656 164.402344 36.839844 162.417969 36.839844 Z M 162.417969 28.023438 C 166.390625 28.023438 169.609375 24.804688 169.609375 20.832031 C 169.609375 16.855469 166.390625 13.636719 162.417969 13.636719 C 158.445312 13.636719 155.222656 16.855469 155.222656 20.832031 C 155.222656 24.804688 158.445312 28.023438 162.417969 28.023438 Z M 162.417969 28.023438 " fill-opacity="1" fill-rule="nonzero"/></g><g clip-path="url(#2504bbf8fc)"><g clip-path="url(#5f9a5d2e7d)"><g clip-path="url(#869585ce8a)"><path fill="#ffed04" d="M 169.027344 57.039062 C 168.296875 56.820312 167.46875 57.03125 166.769531 57.273438 C 166.484375 57.367188 166.328125 57.75 166.515625 58 C 166.820312 58.410156 167.132812 58.816406 167.4375 59.21875 C 167.707031 59.582031 168.007812 60.121094 168.433594 60.3125 C 168.6875 60.425781 168.9375 60.238281 168.9375 59.972656 C 168.9375 59.488281 168.515625 58.980469 168.25 58.605469 C 167.933594 58.171875 167.597656 57.753906 167.238281 57.363281 C 167.1875 57.640625 167.132812 57.917969 167.078125 58.1875 C 167.71875 57.898438 168.410156 57.792969 169.0625 57.542969 C 169.324219 57.445312 169.273438 57.109375 169.027344 57.039062 Z M 169.027344 57.039062 " fill-opacity="1" fill-rule="nonzero"/></g></g></g><g clip-path="url(#29af5b1fcb)"><g clip-path="url(#f1f42af57d)"><g clip-path="url(#246ae8c79f)"><path fill="#ffed04" d="M 156.382812 52.019531 C 155.703125 53.25 155.671875 54.699219 155.890625 56.058594 C 156.132812 57.570312 156.65625 59.035156 157.410156 60.363281 C 158.882812 62.9375 161.402344 64.898438 164.394531 65.230469 C 165.875 65.394531 167.480469 65.179688 168.714844 64.300781 C 169.027344 64.082031 168.789062 63.578125 168.414062 63.699219 C 167.296875 64.054688 166.140625 64.257812 164.960938 64.15625 C 163.796875 64.050781 162.6875 63.691406 161.671875 63.101562 C 159.261719 61.707031 157.652344 59.074219 156.976562 56.425781 C 156.628906 55.035156 156.621094 53.597656 156.878906 52.1875 C 156.929688 51.882812 156.523438 51.761719 156.382812 52.019531 Z M 156.382812 52.019531 " fill-opacity="1" fill-rule="nonzero"/></g></g></g><g clip-path="url(#312cac620d)"><g clip-path="url(#56968a5f9b)"><g clip-path="url(#702855bddc)"><path fill="#ffed04" d="M 163.839844 51.542969 C 162.996094 51.75 162.140625 52.347656 161.652344 53.070312 C 161.449219 53.378906 161.773438 53.898438 162.128906 53.613281 C 162.472656 53.34375 162.789062 53.035156 163.117188 52.746094 C 163.441406 52.460938 163.773438 52.195312 164.078125 51.894531 C 164.246094 51.734375 164.03125 51.496094 163.839844 51.542969 Z M 163.839844 51.542969 " fill-opacity="1" fill-rule="nonzero"/></g></g></g></svg>